<svg width="30" height="30" viewBox="0 0 30 30" fill="none" xmlns="http://www.w3.org/2000/svg">
<g clip-path="url(#clip0_2434_1251)">
<path d="M12.4247 25.0825C6.71128 24.9771 4.75988 24.8823 3.56043 24.6348C2.74893 24.4703 2.04373 24.105 1.52666 23.5753C1.12703 23.1744 0.809218 22.5626 0.562649 21.7139C0.351146 21.0069 0.26877 20.4186 0.15133 18.9816C-0.0284475 15.7385 -0.0713048 13.087 0.15133 10.1244C0.335004 8.48829 0.424058 6.5461 1.6441 5.41301C2.22017 4.88271 2.8903 4.54145 3.64281 4.40037C4.81832 4.17677 9.8265 4 15.0111 4C20.184 4 25.2034 4.17677 26.38 4.40037C27.3201 4.57714 28.2017 5.10688 28.7193 5.78996C29.8325 7.54424 29.852 9.72565 29.965 11.432C30.0117 12.245 30.0117 16.8615 29.965 17.6745C29.7891 20.3712 29.6477 21.3253 29.2481 22.3145C29.001 22.939 28.79 23.2686 28.4249 23.6338C27.8522 24.1959 27.1222 24.5698 26.3321 24.7056C21.3879 25.0781 17.1896 25.1589 12.4247 25.0825ZM19.9959 14.2468C17.2453 12.7742 14.6115 11.4086 11.9193 9.99498V18.4519C14.7523 16.9089 17.739 15.4954 20.0076 14.2351L19.9959 14.2468Z" fill="white"/>
</g>
<defs>
<clipPath id="clip0_2434_1251">
<rect width="30" height="30" fill="white"/>
</clipPath>
</defs>
</svg>
