<svg width="48" height="48" viewBox="0 0 48 48" fill="none" xmlns="http://www.w3.org/2000/svg">
<g clip-path="url(#clip0_138_3156)">
<path d="M24 16C25.5652 16 27.096 16.4592 28.4029 17.3206C29.7097 18.182 30.7352 19.4079 31.3522 20.8464C31.9692 22.2848 32.1507 23.8727 31.8742 25.4133C31.5977 26.9539 30.8753 28.3795 29.7965 29.5136C28.7178 30.6477 27.3301 31.4405 25.8052 31.7937C24.2804 32.1469 22.6854 32.045 21.2179 31.5007C19.7504 30.9563 18.4748 29.9935 17.5491 28.7313C16.6234 27.4692 16.0883 25.9633 16.01 24.4L16 24L16.01 23.6C16.1126 21.5501 16.9992 19.618 18.4864 18.2034C19.9735 16.7889 21.9475 16 24 16Z" fill="#1752BD"/>
<path d="M24 4C24.4899 4.00006 24.9627 4.17991 25.3287 4.50543C25.6948 4.83095 25.9287 5.2795 25.986 5.766L26 6V10C25.9994 10.5098 25.8042 11.0001 25.4543 11.3707C25.1044 11.7414 24.6261 11.9645 24.1172 11.9943C23.6083 12.0242 23.1072 11.8587 22.7163 11.5315C22.3254 11.2043 22.0742 10.7402 22.014 10.234L22 10V6C22 5.46957 22.2107 4.96086 22.5858 4.58579C22.9609 4.21071 23.4696 4 24 4Z" fill="#1752BD"/>
<path d="M35.386 9.78554C35.7459 9.42684 36.2289 9.21859 36.7368 9.20308C37.2447 9.18757 37.7394 9.36597 38.1206 9.70203C38.5017 10.0381 38.7406 10.5066 38.7888 11.0125C38.837 11.5183 38.6908 12.0236 38.38 12.4255L38.214 12.6135L35.414 15.4135C35.0541 15.7722 34.5711 15.9805 34.0632 15.996C33.5553 16.0115 33.0606 15.8331 32.6795 15.497C32.2983 15.161 32.0594 14.6924 32.0112 14.1866C31.963 13.6807 32.1092 13.1755 32.42 12.7735L32.586 12.5855L35.386 9.78554Z" fill="#1752BD"/>
<path d="M42 22C42.5097 22.0006 43 22.1958 43.3707 22.5457C43.7414 22.8956 43.9644 23.3739 43.9943 23.8828C44.0242 24.3917 43.8586 24.8928 43.5315 25.2837C43.2043 25.6746 42.7402 25.9258 42.234 25.986L42 26H38C37.4902 25.9994 36.9999 25.8042 36.6292 25.4543C36.2586 25.1044 36.0355 24.6261 36.0056 24.1172C35.9758 23.6083 36.1413 23.1072 36.4685 22.7163C36.7957 22.3254 37.2598 22.0742 37.766 22.014L38 22H42Z" fill="#1752BD"/>
<path d="M32.5861 32.5857C32.9304 32.2414 33.3886 32.0345 33.8747 32.0039C34.3608 31.9734 34.8413 32.1212 35.2261 32.4197L35.4141 32.5857L38.2141 35.3857C38.5728 35.7456 38.781 36.2286 38.7965 36.7365C38.812 37.2444 38.6336 37.7391 38.2976 38.1203C37.9615 38.5014 37.493 38.7403 36.9871 38.7885C36.4813 38.8367 35.976 38.6905 35.5741 38.3797L35.3861 38.2137L32.5861 35.4137C32.2111 35.0387 32.0005 34.5301 32.0005 33.9997C32.0005 33.4694 32.2111 32.9608 32.5861 32.5857Z" fill="#1752BD"/>
<path d="M24 36C24.4899 36.0001 24.9627 36.1799 25.3287 36.5054C25.6948 36.831 25.9287 37.2795 25.986 37.766L26 38V42C25.9994 42.5098 25.8042 43.0001 25.4543 43.3707C25.1044 43.7414 24.6261 43.9645 24.1172 43.9943C23.6083 44.0242 23.1072 43.8587 22.7163 43.5315C22.3254 43.2043 22.0742 42.7402 22.014 42.234L22 42V38C22 37.4696 22.2107 36.9609 22.5858 36.5858C22.9609 36.2107 23.4696 36 24 36Z" fill="#1752BD"/>
<path d="M12.586 32.5863C12.9459 32.2276 13.4288 32.0194 13.9367 32.0039C14.4446 31.9884 14.9394 32.1667 15.3205 32.5028C15.7017 32.8389 15.9406 33.3074 15.9888 33.8133C16.0369 34.3191 15.8908 34.8243 15.58 35.2263L15.414 35.4143L12.614 38.2143C12.254 38.573 11.7711 38.7813 11.2632 38.7968C10.7553 38.8123 10.2605 38.6339 9.87941 38.2978C9.49828 37.9618 9.25935 37.4932 9.21117 36.9874C9.16298 36.4815 9.30914 35.9763 9.61996 35.5743L9.78596 35.3863L12.586 32.5863Z" fill="#1752BD"/>
<path d="M12 22C12.5097 22.0006 13 22.1958 13.3707 22.5457C13.7414 22.8956 13.9645 23.3739 13.9943 23.8828C14.0242 24.3917 13.8586 24.8928 13.5315 25.2837C13.2043 25.6746 12.7402 25.9258 12.234 25.986L12 26H7.99998C7.49022 25.9994 6.99992 25.8042 6.62924 25.4543C6.25857 25.1044 6.03551 24.6261 6.00564 24.1172C5.97576 23.6083 6.14133 23.1072 6.46851 22.7163C6.79569 22.3254 7.25979 22.0742 7.76598 22.014L7.99998 22H12Z" fill="#1752BD"/>
<path d="M9.78601 9.78592C10.1304 9.44156 10.5886 9.2347 11.0746 9.20414C11.5607 9.17358 12.0412 9.32142 12.426 9.61992L12.614 9.78592L15.414 12.5859C15.7727 12.9458 15.981 13.4288 15.9965 13.9367C16.012 14.4446 15.8336 14.9393 15.4975 15.3205C15.1614 15.7016 14.6929 15.9405 14.1871 15.9887C13.6812 16.0369 13.176 15.8907 12.774 15.5799L12.586 15.4139L9.78601 12.6139C9.41107 12.2389 9.20044 11.7302 9.20044 11.1999C9.20044 10.6696 9.41107 10.161 9.78601 9.78592Z" fill="#1752BD"/>
</g>
<defs>
<clipPath id="clip0_138_3156">
<rect width="48" height="48" fill="white"/>
</clipPath>
</defs>
</svg>
