<svg width="48" height="48" viewBox="0 0 48 48" fill="none" xmlns="http://www.w3.org/2000/svg">
<g clip-path="url(#clip0_138_3143)">
<path d="M20 32H8C7.46957 32 6.96086 31.7893 6.58579 31.4142C6.21071 31.0391 6 30.5304 6 30V10C6 9.46957 6.21071 8.96086 6.58579 8.58579C6.96086 8.21071 7.46957 8 8 8H40C40.5304 8 41.0391 8.21071 41.4142 8.58579C41.7893 8.96086 42 9.46957 42 10V23" stroke="#1752BD" stroke-width="4" stroke-linecap="round" stroke-linejoin="round"/>
<path d="M14 40H21" stroke="#1752BD" stroke-width="4" stroke-linecap="round" stroke-linejoin="round"/>
<path d="M18 32V40" stroke="#1752BD" stroke-width="4" stroke-linecap="round" stroke-linejoin="round"/>
<path d="M35.6 41.6339L31.256 43.91C31.1271 43.977 30.9821 44.007 30.8371 43.9964C30.6922 43.9859 30.553 43.9353 30.4352 43.8502C30.3173 43.7651 30.2255 43.649 30.1698 43.5148C30.1141 43.3805 30.0969 43.2334 30.12 43.09L30.95 38.268L27.436 34.854C27.3311 34.7526 27.2568 34.6237 27.2217 34.4821C27.1865 34.3405 27.1919 34.1919 27.2371 34.0532C27.2824 33.9146 27.3657 33.7914 27.4776 33.6978C27.5895 33.6042 27.7255 33.544 27.87 33.5239L32.726 32.82L34.898 28.434C34.9629 28.3033 35.0631 28.1934 35.1871 28.1166C35.3111 28.0397 35.4541 27.999 35.6 27.999C35.7459 27.999 35.8889 28.0397 36.0129 28.1166C36.1369 28.1934 36.237 28.3033 36.302 28.434L38.474 32.82L43.33 33.5239C43.4741 33.5447 43.6095 33.6053 43.7209 33.699C43.8323 33.7927 43.9153 33.9157 43.9604 34.054C44.0056 34.1924 44.0111 34.3407 43.9764 34.482C43.9417 34.6234 43.8681 34.7522 43.764 34.854L40.25 38.268L41.078 43.088C41.1028 43.2317 41.0869 43.3795 41.0319 43.5146C40.977 43.6498 40.8853 43.7668 40.7672 43.8524C40.6491 43.938 40.5093 43.9888 40.3638 43.9989C40.2183 44.0091 40.0729 43.9783 39.944 43.91L35.6 41.6339Z" stroke="#1752BD" stroke-width="4" stroke-linecap="round" stroke-linejoin="round"/>
</g>
<defs>
<clipPath id="clip0_138_3143">
<rect width="48" height="48" fill="white"/>
</clipPath>
</defs>
</svg>
