<svg width="48" height="48" viewBox="0 0 48 48" fill="none" xmlns="http://www.w3.org/2000/svg">
<g clip-path="url(#clip0_138_3174)">
<path d="M14 19.9997H20V13.9997L13 6.99971C15.2392 5.93026 17.755 5.58132 20.2007 6.00095C22.6465 6.42058 24.9021 7.58814 26.6568 9.34285C28.4115 11.0976 29.5791 13.3531 29.9987 15.7989C30.4183 18.2447 30.0694 20.7604 29 22.9997L41 34.9997C41.7956 35.7954 42.2426 36.8745 42.2426 37.9997C42.2426 39.1249 41.7956 40.2041 41 40.9997C40.2043 41.7954 39.1252 42.2423 38 42.2423C36.8747 42.2423 35.7956 41.7954 35 40.9997L23 28.9997C20.7607 30.0692 18.245 30.4181 15.7992 29.9985C13.3534 29.5788 11.0978 28.4113 9.3431 26.6566C7.58839 24.9019 6.42083 22.6463 6.0012 20.2005C5.58156 17.7547 5.9305 15.239 6.99995 12.9997L14 19.9997Z" stroke="#1752BD" stroke-width="4" stroke-linecap="round" stroke-linejoin="round"/>
</g>
<defs>
<clipPath id="clip0_138_3174">
<rect width="48" height="48" fill="white"/>
</clipPath>
</defs>
</svg>
