<svg width="20" height="20" viewBox="0 0 20 20" fill="none" xmlns="http://www.w3.org/2000/svg">
<path d="M12.2499 5.25C12.0972 5.40578 12.0117 5.61521 12.0117 5.83334C12.0117 6.05146 12.0972 6.2609 12.2499 6.41667L13.5832 7.75C13.739 7.90269 13.9484 7.98822 14.1665 7.98822C14.3847 7.98822 14.5941 7.90269 14.7499 7.75L17.8915 4.60834C18.3106 5.53433 18.4374 6.56603 18.2553 7.56596C18.0731 8.56588 17.5905 9.48654 16.8718 10.2052C16.1531 10.9239 15.2324 11.4065 14.2325 11.5887C13.2326 11.7709 12.2009 11.644 11.2749 11.225L5.51655 16.9833C5.18503 17.3149 4.73539 17.5011 4.26655 17.5011C3.79771 17.5011 3.34807 17.3149 3.01655 16.9833C2.68503 16.6518 2.49878 16.2022 2.49878 15.7333C2.49878 15.2645 2.68503 14.8149 3.01655 14.4833L8.77488 8.725C8.35585 7.79901 8.22898 6.76731 8.41116 5.76738C8.59335 4.76746 9.07595 3.8468 9.79465 3.1281C10.5133 2.40941 11.434 1.92681 12.4339 1.74462C13.4339 1.56243 14.4656 1.68931 15.3915 2.10834L12.2582 5.24167L12.2499 5.25Z" stroke="#101010" stroke-width="1.66667" stroke-linecap="round" stroke-linejoin="round"/>
</svg>
