<svg width="200" height="34" viewBox="0 0 200 34" fill="none" xmlns="http://www.w3.org/2000/svg">
<g clip-path="url(#clip0_2024_89)">
<path d="M17.8043 15.9114C17.874 15.9826 17.9708 16.0239 18.0747 16.0239H24.4649C24.5716 16.0239 24.6727 15.9797 24.7453 15.9015L31.7616 8.3414C31.9566 8.2005 32.1431 8.04395 32.3181 7.86747C34.0986 6.08704 34.0986 3.20221 32.3181 1.4232C30.5363 -0.357224 27.65 -0.357224 25.871 1.4232C25.7358 1.55699 25.612 1.70073 25.4981 1.84874L17.8669 8.92776C17.7886 8.99892 17.7445 9.10139 17.7445 9.20813V15.4546C17.6862 15.5556 17.6776 15.6794 17.7232 15.789C17.7417 15.8374 17.7687 15.8787 17.8043 15.9143V15.9114ZM26.1414 8.11511C27.2373 9.04873 28.669 9.38034 30.0026 9.10851L24.2955 15.2582H18.9955L26.1414 8.11511ZM18.5074 9.3718L24.6399 3.68467C24.3525 5.02533 24.6741 6.46704 25.6049 7.57287L18.5074 14.6675V9.3718Z" fill="#101010"/>
<path d="M16.1818 17.9153C16.1818 17.7616 16.0893 17.6221 15.947 17.5623C15.8346 17.5168 15.7136 17.5268 15.6126 17.5837H9.3647C9.25796 17.5837 9.15691 17.6278 9.08575 17.7061L2.00389 25.3359C1.8573 25.4512 1.71498 25.575 1.57835 25.7088C-0.20208 27.4892 -0.20208 30.374 1.57835 32.153C3.3602 33.9335 6.24646 33.9335 8.02546 32.153C8.20051 31.978 8.35849 31.7915 8.49939 31.5966L16.0623 24.5816C16.1406 24.5104 16.1847 24.4079 16.1847 24.3026V17.9153H16.1833H16.1818ZM7.73086 25.4426C6.62361 24.5118 5.18048 24.1916 3.84124 24.4777L9.52979 18.3479H14.827L7.72943 25.4426H7.73086ZM9.26649 29.8417C9.5369 28.5082 9.2053 27.075 8.2731 25.982L15.419 18.8389V24.1375L9.26792 29.8432L9.26649 29.8417Z" fill="#101010"/>
<path d="M31.8926 25.3373L24.8107 17.7075C24.7381 17.6278 24.6357 17.5851 24.5304 17.5851H18.2825C18.1814 17.5268 18.0576 17.5182 17.948 17.5638C17.8057 17.6235 17.7132 17.763 17.7132 17.9167V24.3055C17.7132 24.4065 17.7531 24.5047 17.8242 24.5759C17.8271 24.5787 17.8299 24.5816 17.8356 24.5844L25.3985 31.5994C25.5394 31.793 25.696 31.9794 25.8724 32.1559C27.6529 33.9363 30.5405 33.9363 32.3196 32.1559C34.1014 30.3754 34.1014 27.4906 32.3196 25.7116C32.1843 25.575 32.042 25.4512 31.8926 25.3373ZM24.6286 29.8417L18.476 24.1361V18.8375L25.622 25.9806C24.6898 27.075 24.3582 28.5068 24.6286 29.8403V29.8417ZM26.1642 25.4426L19.0667 18.3479H24.3638L30.0524 24.4777C28.7132 24.1902 27.2686 24.5118 26.1628 25.4426H26.1642Z" fill="#101010"/>
<path d="M16.1505 9.20528C16.1505 9.09854 16.1064 8.99607 16.0281 8.92491L8.39691 1.84732C8.28163 1.70073 8.15781 1.5584 8.02403 1.42178C6.2436 -0.358651 3.35734 -0.358651 1.57691 1.42178C-0.203515 3.20221 -0.203515 6.08704 1.57691 7.86604C1.75339 8.0411 1.93983 8.19907 2.13339 8.33997L9.14978 15.9C9.14978 15.9 9.15547 15.9071 9.15832 15.91C9.22948 15.9826 9.32626 16.0224 9.42873 16.0224H15.8189C15.974 16.0224 16.1121 15.9285 16.1719 15.7876C16.2174 15.6752 16.2074 15.5542 16.1505 15.4531V9.20528ZM9.59524 15.2582L3.8882 9.1085C5.22316 9.37891 6.65491 9.0473 7.74935 8.11511L14.8953 15.2582H9.59524ZM15.3863 14.6675L8.28874 7.57287C9.21952 6.46704 9.54116 5.02391 9.25368 3.68467L15.3863 9.37179V14.6675Z" fill="#101010"/>
<path d="M124.969 16.6501C123.695 16.6472 122.421 16.6501 121.147 16.6501C120.543 16.6501 119.938 16.6358 119.336 16.6529C118.719 16.6714 118.294 17.0756 118.294 17.5965C118.294 18.1174 118.724 18.5173 119.336 18.5259C120.022 18.533 120.708 18.5116 121.394 18.5116C122.239 18.5074 123.083 18.5116 123.924 18.5116C124.132 20.3262 123.654 20.7702 122.359 20.9453C120.377 21.2157 118.382 21.22 116.401 20.9425C115.156 20.766 114.592 20.2422 114.501 19.0183C114.4 17.6847 114.424 16.327 114.53 14.9949C114.618 13.9147 115.213 13.4109 116.303 13.2287C116.767 13.1518 117.245 13.0807 117.713 13.0949C119.405 13.1518 121.099 13.2173 122.788 13.3369C123.426 13.3824 123.861 13.7311 123.921 14.4555C123.964 14.965 124.407 15.3137 124.882 15.3308C125.367 15.3493 125.84 14.9835 125.956 14.4968C126.234 13.3497 125.622 12.1499 124.52 11.7144C124.263 11.6119 123.997 11.5208 123.725 11.4753C120.917 11.0142 118.095 11.0085 115.287 11.434C113.471 11.7087 112.612 12.6124 112.376 14.2449C112.116 16.0537 112.102 17.8683 112.348 19.6801C112.615 21.6356 113.481 22.5436 115.455 22.7755C116.795 22.9335 118.157 22.9862 119.508 22.9862C120.858 22.9862 122.091 22.9236 123.365 22.7613C125.184 22.5265 125.962 21.6498 126.11 19.8423C126.163 19.1805 126.17 18.513 126.17 17.8484C126.173 17.0315 125.79 16.6558 124.97 16.6515L124.969 16.6501Z" fill="#101010"/>
<path d="M141.957 11.1722C141.391 11.1238 140.916 11.4497 140.8 11.999C140.755 12.2168 140.755 12.4502 140.755 12.6779C140.751 15.0177 140.751 17.3531 140.751 19.6929V20.2095C140.698 20.2266 140.645 20.2479 140.593 20.2664C140.476 20.1327 140.371 19.9889 140.244 19.8651C137.699 17.3432 135.166 14.807 132.597 12.3093C132.143 11.8695 131.584 11.4582 130.996 11.2504C129.937 10.8776 129.022 11.4725 129.015 12.4644C128.991 15.6624 129.001 18.8589 129.008 22.0568C129.008 22.6019 129.376 22.9862 129.89 23.0602C130.411 23.1342 130.913 22.8353 131.066 22.3173C131.133 22.0881 131.147 21.8391 131.151 21.5957C131.158 19.2247 131.154 16.8536 131.154 14.4868C131.154 14.3217 131.168 14.1595 131.178 13.9944C131.224 13.9773 131.269 13.9559 131.315 13.9374C131.424 14.0783 131.523 14.2335 131.645 14.3601C134.175 16.8749 136.704 19.3869 139.246 21.8917C139.581 22.2191 139.937 22.5493 140.341 22.7812C141.71 23.5725 142.893 22.8908 142.895 21.3353C142.898 18.412 142.895 15.493 142.895 12.5697C142.895 12.426 142.895 12.278 142.881 12.1342C142.831 11.5778 142.477 11.2191 141.956 11.1736L141.957 11.1722Z" fill="#101010"/>
<path d="M108.923 11.0953C108.273 11.0882 107.853 11.5664 107.85 12.3264C107.846 13.899 107.85 15.4702 107.85 17.0471C107.85 18.6241 107.846 20.2579 107.85 21.8633C107.85 22.5919 108.269 23.0531 108.909 23.0531C109.55 23.0531 110.007 22.5791 110.007 21.8775C110.014 18.6981 110.014 15.5215 110.007 12.3406C110.007 11.5949 109.563 11.1024 108.922 11.0953H108.923Z" fill="#101010"/>
<path d="M103.329 16.2872C103.03 16.216 102.72 16.1562 102.409 16.1463C100.632 16.0722 98.8515 16.0267 97.0753 15.9456C96.6071 15.9242 96.126 15.8645 95.682 15.7236C95.44 15.6467 95.1611 15.3962 95.08 15.1642C94.69 14.0428 95.1469 13.233 96.3253 13.1732C98.0673 13.0878 99.8164 13.0992 101.558 13.176C102.407 13.2116 102.976 13.5148 102.983 14.5508C102.986 15.0817 103.444 15.4375 103.961 15.4617C104.485 15.4859 104.936 15.123 105.044 14.5964C105.354 13.0835 104.633 11.9023 103.147 11.5038C102.925 11.444 102.7 11.3799 102.475 11.3743C100.537 11.3145 98.5939 11.2262 96.654 11.2305C95.9467 11.2305 95.2294 11.3999 94.5392 11.5863C93.6283 11.8325 93.0334 12.4488 92.9452 13.408C92.8783 14.1467 92.8783 14.8967 92.9096 15.6382C92.958 16.7397 93.6411 17.3232 94.6544 17.5837C94.8765 17.6406 95.1013 17.7032 95.3262 17.7175C96.7081 17.7915 98.0957 17.8484 99.4819 17.921C100.411 17.9708 101.344 18.0021 102.261 18.133C102.589 18.1786 103.007 18.422 103.158 18.6952C103.722 19.7228 103.172 20.8969 102.011 20.9567C99.9943 21.0549 97.9677 21.0335 95.951 20.9425C94.9661 20.8969 94.8252 20.6151 94.7341 19.6345C94.6815 19.0539 94.2901 18.6497 93.7422 18.6141C93.2284 18.5785 92.7886 18.9201 92.6449 19.468C92.2265 21.0236 92.9751 22.4012 94.5548 22.6702C96.0264 22.9236 97.4895 22.8367 98.9824 22.9748C99.0379 22.9748 99.0009 22.9791 99.0393 22.9734C99.8064 22.9734 100.578 23.0232 101.341 22.9591C102.15 22.8922 102.963 22.777 103.75 22.5863C104.651 22.3685 105.236 21.7565 105.344 20.8201C105.425 20.1312 105.464 19.4267 105.425 18.7379C105.334 17.2037 104.825 16.6344 103.325 16.2857L103.329 16.2872Z" fill="#101010"/>
<path d="M79.0761 11.6575C78.41 11.5109 77.724 11.3942 77.0451 11.3828C74.2229 11.3301 71.3979 11.3159 68.5757 11.2988C67.6933 11.2917 67.3332 11.6617 67.3304 12.547C67.3275 14.0556 67.3304 15.5656 67.3304 17.0742V21.5032C67.3304 22.572 67.6264 22.8709 68.6881 22.8709C69.9932 22.8709 71.2982 22.8951 72.6047 22.8638C74.462 22.8211 76.3236 22.7997 78.178 22.6588C80.0894 22.5151 81.07 21.6669 81.3233 19.9718C81.6193 17.9907 81.6122 15.9968 81.2948 14.01C81.0913 12.732 80.3384 11.935 79.0746 11.656L79.0761 11.6575ZM79.1856 19.1478C79.1259 20.1568 78.4214 20.7204 77.2188 20.8087C75.9834 20.8998 74.741 20.9183 73.4985 20.9353C72.1934 20.9567 70.8869 20.9382 69.532 20.9382V13.2415C69.6801 13.2273 69.8167 13.2059 69.9576 13.2059C71.9671 13.2088 73.9767 13.2059 75.9849 13.2344C76.584 13.2458 77.1917 13.3155 77.7795 13.4308C78.6064 13.593 79.1444 14.141 79.1828 14.9678C79.2468 16.3612 79.2596 17.7573 79.1828 19.1478H79.1856Z" fill="#101010"/>
<path d="M64.5608 21.0222C64.3487 20.9553 64.1096 20.9453 63.8848 20.9453C61.37 20.9425 58.8538 20.9425 56.3375 20.9425H55.7569V17.8328H62.7348C63.0764 17.8328 63.4251 17.8513 63.7624 17.8086C64.1908 17.7516 64.4797 17.5097 64.5153 17.0486C64.5537 16.5561 64.3388 16.1833 63.9033 16.0609C63.6713 15.9968 63.4208 15.984 63.1774 15.984C60.8904 15.9769 58.6033 15.9797 56.3162 15.9797C56.1297 15.9797 55.939 15.9627 55.7426 15.9555V13.2187H56.3333C58.7997 13.2187 61.2675 13.2187 63.7325 13.2159C63.9446 13.2159 64.158 13.2088 64.3616 13.159C64.8056 13.0536 65.076 12.7647 65.0902 12.3008C65.1045 11.8396 64.8511 11.5308 64.4284 11.3828C64.2349 11.3159 64.0129 11.3088 63.8022 11.3059C60.8462 11.3031 57.8874 11.3031 54.9314 11.3031C53.928 11.3031 53.5623 11.6546 53.5623 12.6438C53.558 15.6168 53.558 18.5856 53.5623 21.5573C53.5623 22.545 53.8996 22.8809 54.8816 22.8809H63.9488C64.0798 22.8809 64.2093 22.8837 64.3402 22.8737C64.854 22.8254 65.1557 22.5535 65.2055 22.1066C65.2582 21.6042 65.0148 21.1673 64.558 21.0264L64.5608 21.0222Z" fill="#101010"/>
<path d="M165.099 18.5315C164.547 18.5415 164.149 18.9087 164.088 19.4566C163.98 20.4415 163.711 20.7802 162.713 20.9069C161.679 21.0407 160.634 21.072 159.553 21.1531C158.498 21.0748 157.403 21.0364 156.319 20.8998C155.25 20.7631 154.644 20.2237 154.567 19.1763C154.465 17.7929 154.46 16.3896 154.57 15.0077C154.658 13.8919 155.253 13.3753 156.379 13.2201C158.377 12.9426 160.387 12.9597 162.386 13.196C163.643 13.344 163.723 13.4763 163.945 14.7017C164.047 15.2724 164.427 15.5884 164.996 15.5812C165.548 15.5741 166.017 15.2226 166.031 14.6804C166.076 12.7661 165.706 11.7927 163.842 11.4653C161.008 10.9686 158.148 10.9928 155.311 11.434C153.426 11.7258 152.606 12.5626 152.427 14.4555C152.269 16.1263 152.244 17.8285 152.391 19.4993C152.585 21.6654 153.461 22.5734 155.632 22.767C157.835 22.9606 160.062 22.9036 162.279 22.9036C162.906 22.9036 163.546 22.777 164.158 22.619C165.738 22.2148 166.291 21.3025 166.17 19.3897C166.139 18.8688 165.642 18.5202 165.097 18.5315H165.099Z" fill="#101010"/>
<path d="M199.442 11.3728C199.052 10.9857 198.503 10.9715 198.03 11.3543C197.82 11.5294 197.628 11.7315 197.44 11.935C195.952 13.5503 194.465 15.1671 192.907 16.8636C192.784 16.7013 192.689 16.5504 192.569 16.4195C191.141 14.8611 189.709 13.3027 188.277 11.7471C188.102 11.5578 187.91 11.3714 187.696 11.2305C187.257 10.9416 186.722 11.0341 186.369 11.4241C185.971 11.8681 186.017 12.399 186.519 12.9369C188.16 14.6989 189.796 16.4679 191.454 18.2142C191.735 18.513 191.845 18.8048 191.832 19.2019C191.808 20.0771 191.822 20.9538 191.827 21.8291C191.831 22.572 192.219 23.0289 192.86 23.0474C193.512 23.0616 193.976 22.572 193.984 21.8448C193.991 20.951 193.96 20.0572 194.001 19.1677C194.017 18.893 194.139 18.57 194.321 18.365C195.53 17.0215 196.768 15.7051 197.996 14.3829C198.483 13.8592 198.977 13.3383 199.456 12.8074C199.869 12.3463 199.855 11.7827 199.442 11.3728Z" fill="#101010"/>
<path d="M183.995 11.296H183.896C180.336 11.296 176.775 11.2917 173.212 11.2988C172.478 11.2988 172.04 11.6788 172.048 12.2666C172.054 12.8458 172.495 13.2016 173.238 13.2088C174.462 13.2159 175.686 13.2116 176.913 13.2116H177.489V21.1019C177.489 21.3936 177.478 21.6896 177.509 21.9771C177.563 22.4624 177.963 22.8254 178.46 22.8709C178.959 22.9136 179.466 22.5863 179.578 22.1152C179.631 21.8974 179.635 21.6654 179.635 21.4392C179.638 18.9058 179.638 16.374 179.638 13.8407V13.2145H180.314C181.538 13.2145 182.762 13.2258 183.989 13.2073C184.656 13.1974 185.065 12.8131 185.065 12.2581C185.071 11.6874 184.664 11.3287 183.995 11.2946V11.296Z" fill="#101010"/>
<path d="M51.0731 20.9284C50.9109 20.9028 50.7458 20.9142 50.5835 20.9142H43.4646V12.6155C43.4646 12.422 43.4689 12.2255 43.4476 12.032C43.3835 11.504 42.948 11.1169 42.42 11.0955C41.892 11.0784 41.4423 11.4371 41.3469 11.9679C41.3213 12.1131 41.3156 12.2597 41.3156 12.4049C41.3113 15.4406 41.3113 18.472 41.3156 21.5077C41.3185 22.521 41.6842 22.8725 42.716 22.8725C45.3618 22.8768 48.0075 22.8725 50.6504 22.8725C50.8297 22.8725 51.0133 22.8697 51.1855 22.827C51.6751 22.7074 51.9284 22.3559 51.9114 21.8663C51.89 21.381 51.5527 20.9982 51.0731 20.9284Z" fill="#101010"/>
<path d="M170.757 12.5484C170.757 12.4189 170.763 12.2879 170.75 12.1584C170.692 11.5251 170.219 11.0782 169.632 11.0925C169.03 11.111 168.601 11.5607 168.597 12.2139C168.591 15.4574 168.594 18.7009 168.597 21.9444C168.597 22.4895 168.843 22.831 169.309 22.9819C170.059 23.2281 170.747 22.7143 170.75 21.8846C170.762 20.2949 170.755 18.7037 170.755 17.1183C170.759 15.5983 170.759 14.0712 170.759 12.5484H170.757Z" fill="#101010"/>
</g>
<defs>
<clipPath id="clip0_2024_89">
<rect width="200" height="33.5776" fill="white"/>
</clipPath>
</defs>
</svg>
