<svg width="21" height="20" viewBox="0 0 21 20" fill="none" xmlns="http://www.w3.org/2000/svg">
<path d="M9.25402 3.76504C9.79125 2.09336 10.2833 0.562246 10.3435 0.366464C10.4038 0.165662 10.4741 0 10.4992 0C10.5193 0 10.7753 0.727908 11.0615 1.61646C11.3477 2.51003 11.8046 3.91564 12.0707 4.74395C12.3368 5.57226 12.6531 6.55619 12.9945 7.60538L16.976 7.5853C19.9934 7.57024 20.9675 7.57526 20.9976 7.62044C21.0177 7.6606 20.9122 7.76602 20.6963 7.91662C20.5055 8.04714 19.7926 8.55919 19.0997 9.0612C18.4119 9.5632 17.1316 10.4869 16.263 11.1144C15.3944 11.7419 14.6463 12.2791 14.6062 12.2991C14.5409 12.3393 14.5459 12.3845 14.6363 12.6606C14.6965 12.8363 14.8823 13.3935 15.048 13.9055C15.2137 14.4176 15.7107 15.9437 16.1525 17.2941C16.5944 18.6445 16.9709 19.8041 16.986 19.8694C17.0011 19.9296 17.0011 19.9798 16.981 19.9798C16.9559 19.9798 16.4186 19.6033 15.781 19.1415C15.1434 18.6746 13.7275 17.6405 12.633 16.8423C11.5334 16.0441 10.6096 15.3664 10.5745 15.3413C10.5343 15.3112 10.1778 15.5371 9.43477 16.0742C8.84232 16.5059 7.3863 17.5702 6.19638 18.4387C5.00646 19.3071 4.02239 20.0099 3.99729 19.9999C3.97721 19.9899 4.05252 19.7138 4.15795 19.3874C4.26841 19.0662 4.5797 18.1124 4.85584 17.269C5.13198 16.4256 5.55874 15.1405 5.79974 14.4076C6.03572 13.6746 6.28675 12.9116 6.47252 12.3493L5.57883 11.7118C5.09181 11.3604 4.46422 10.9136 4.18808 10.7128C3.91194 10.512 2.8626 9.75396 1.85844 9.02606C0.849271 8.29815 0.0158252 7.67566 0.000762893 7.6355C-0.0243409 7.57526 0.527943 7.57024 8.00385 7.64052L8.13941 7.22386C8.21473 6.99293 8.71178 5.43672 9.25402 3.76504Z" fill="#FFCC02"/>
</svg>
