<svg width="24" height="24" viewBox="0 0 24 24" fill="none" xmlns="http://www.w3.org/2000/svg">
<path d="M18.6669 15.2802V17.2802C18.6677 17.4659 18.6297 17.6497 18.5553 17.8198C18.4809 17.9899 18.3718 18.1426 18.235 18.2681C18.0982 18.3937 17.9367 18.4892 17.7608 18.5487C17.5849 18.6082 17.3985 18.6303 17.2136 18.6136C15.1622 18.3907 13.1916 17.6897 11.4603 16.5669C9.8495 15.5433 8.48384 14.1777 7.46028 12.5669C6.3336 10.8277 5.63244 8.84756 5.41361 6.78689C5.39695 6.60254 5.41886 6.41673 5.47795 6.24131C5.53703 6.06589 5.63199 5.90469 5.75679 5.76797C5.88159 5.63126 6.03348 5.52203 6.20281 5.44724C6.37213 5.37245 6.55517 5.33374 6.74028 5.33356H8.74028C9.06382 5.33038 9.37748 5.44495 9.62279 5.65592C9.8681 5.86689 10.0283 6.15986 10.0736 6.48023C10.158 7.12027 10.3146 7.74871 10.5403 8.35356C10.63 8.59218 10.6494 8.8515 10.5962 9.10081C10.543 9.35012 10.4195 9.57897 10.2403 9.76023L9.39361 10.6069C10.3427 12.2759 11.7246 13.6579 13.3936 14.6069L14.2403 13.7602C14.4215 13.581 14.6504 13.4575 14.8997 13.4043C15.149 13.3511 15.4083 13.3705 15.6469 13.4602C16.2518 13.6859 16.8802 13.8425 17.5203 13.9269C17.8441 13.9726 18.1399 14.1357 18.3513 14.3852C18.5627 14.6348 18.6751 14.9533 18.6669 15.2802Z" stroke="#1752BD" stroke-width="1.33333" stroke-linecap="round" stroke-linejoin="round"/>
</svg>
