<svg width="16" height="16" viewBox="0 0 16 16" fill="none" xmlns="http://www.w3.org/2000/svg">
<path d="M12.6667 2H3.33333C2.59695 2 2 2.59695 2 3.33333V12.6667C2 13.403 2.59695 14 3.33333 14H12.6667C13.403 14 14 13.403 14 12.6667V3.33333C14 2.59695 13.403 2 12.6667 2Z" stroke="#626262" stroke-width="1.33333" stroke-linecap="round" stroke-linejoin="round"/>
<path d="M6.00033 7.33335C6.73671 7.33335 7.33366 6.7364 7.33366 6.00002C7.33366 5.26364 6.73671 4.66669 6.00033 4.66669C5.26395 4.66669 4.66699 5.26364 4.66699 6.00002C4.66699 6.7364 5.26395 7.33335 6.00033 7.33335Z" stroke="#626262" stroke-width="1.33333" stroke-linecap="round" stroke-linejoin="round"/>
<path d="M14 10L11.9427 7.94269C11.6926 7.69273 11.3536 7.55231 11 7.55231C10.6464 7.55231 10.3074 7.69273 10.0573 7.94269L4 14" stroke="#626262" stroke-width="1.33333" stroke-linecap="round" stroke-linejoin="round"/>
</svg>
