<svg width="20" height="20" viewBox="0 0 20 20" fill="none" xmlns="http://www.w3.org/2000/svg">
<path d="M11.667 15V4.99998C11.667 4.55795 11.4914 4.13403 11.1788 3.82147C10.8663 3.50891 10.4424 3.33331 10.0003 3.33331H3.33366C2.89163 3.33331 2.46771 3.50891 2.15515 3.82147C1.84259 4.13403 1.66699 4.55795 1.66699 4.99998V14.1666C1.66699 14.3877 1.75479 14.5996 1.91107 14.7559C2.06735 14.9122 2.27931 15 2.50033 15H4.16699" stroke="#FFCC02" stroke-width="1.66667" stroke-linecap="round" stroke-linejoin="round"/>
<path d="M12.5 15H7.5" stroke="#FFCC02" stroke-width="1.66667" stroke-linecap="round" stroke-linejoin="round"/>
<path d="M15.8337 15H17.5003C17.7213 15 17.9333 14.9122 18.0896 14.7559C18.2459 14.5997 18.3337 14.3877 18.3337 14.1667V11.125C18.3333 10.9359 18.2687 10.7525 18.1503 10.605L15.2503 6.98002C15.1724 6.88242 15.0735 6.80359 14.961 6.74935C14.8485 6.69512 14.7252 6.66687 14.6003 6.66669H11.667" stroke="#FFCC02" stroke-width="1.66667" stroke-linecap="round" stroke-linejoin="round"/>
<path d="M14.1667 16.6666C15.0871 16.6666 15.8333 15.9205 15.8333 15C15.8333 14.0795 15.0871 13.3333 14.1667 13.3333C13.2462 13.3333 12.5 14.0795 12.5 15C12.5 15.9205 13.2462 16.6666 14.1667 16.6666Z" stroke="#FFCC02" stroke-width="1.66667" stroke-linecap="round" stroke-linejoin="round"/>
<path d="M5.83366 16.6666C6.75413 16.6666 7.50033 15.9205 7.50033 15C7.50033 14.0795 6.75413 13.3333 5.83366 13.3333C4.91318 13.3333 4.16699 14.0795 4.16699 15C4.16699 15.9205 4.91318 16.6666 5.83366 16.6666Z" stroke="#FFCC02" stroke-width="1.66667" stroke-linecap="round" stroke-linejoin="round"/>
</svg>
