<svg width="28" height="28" viewBox="0 0 28 28" fill="none" xmlns="http://www.w3.org/2000/svg">
<rect width="27.425" height="27.425" rx="8.06618" fill="#4A75CB"/>
<g clip-path="url(#clip0_2323_887)">
<path d="M19.6931 9.34487C19.4153 9.06709 19.0456 8.90021 18.6535 8.87556C18.2614 8.8509 17.8738 8.97016 17.5634 9.21096L17.4117 9.34487L12.0989 14.6562L10.0127 12.5717L9.86108 12.4377C9.55064 12.1971 9.16308 12.078 8.77108 12.1027C8.37908 12.1275 8.00957 12.2943 7.73183 12.5721C7.45409 12.8498 7.28721 13.2193 7.26248 13.6113C7.23775 14.0033 7.35687 14.3909 7.5975 14.7013L7.73141 14.853L10.9582 18.0798L11.1098 18.2137C11.3928 18.4332 11.7407 18.5524 12.0989 18.5524C12.457 18.5524 12.8049 18.4332 13.0879 18.2137L13.2395 18.0798L19.6931 11.6262L19.827 11.4745C20.0678 11.1641 20.1871 10.7765 20.1624 10.3844C20.1377 9.99232 19.9709 9.62269 19.6931 9.34487Z" fill="white"/>
</g>
<defs>
<clipPath id="clip0_2323_887">
<rect width="19.3588" height="19.3588" fill="white" transform="translate(4.0332 4.03308)"/>
</clipPath>
</defs>
</svg>
